# xmcd
#
# Track frame offsets: 
#        150
#        21418
#        40604
#        57388
#        73550
#        91002
#        105250
#        118387
#        135295
#        156481
#        172943
#        190263
#        204797
#        216713
#        236107
#        247175
#        257867
#        274350
#        287751
#        303071
#        318391
#        331802
#
# Disc length: 4638 seconds
#
# Revision: 0
# Processed by: cddbd v1.5.2PL0 Copyright (c) Steve Scherf et al.
# Submitted via: ExactAudioCopy v1.1
#
DISCID=44121c16
DTITLE=Various Artist - ローオン歌謡列伝
DYEAR=2010
DGENRE=JPop
TTITLE0=京山幸枝若 - 浪曲河内音頭 会津の小鉄
TTITLE1=横山やすし - 俺は浪花の漫才師
TTITLE2=フラワーショー - 男のみち
TTITLE3=フラワーショー - 義理のしがらみ
TTITLE4=トリオ・ザ・ミミック - あなたの女で死にたいわ
TTITLE5=正司敏江・玲児 - チューリップ人生 (いさましく)
TTITLE6=ミスウララ・島ひろし - あなたの過去
TTITLE7=吉本ひでき - 大阪夜風
TTITLE8=松島一夫 - あゝおやぢさん
TTITLE9=東洋日出丸 - 河内破れ傘
TTITLE10=東洋朝日丸 - 馬喰子守唄
TTITLE11=フラワーショー - 女の舞台
TTITLE12=フラワーショー - 幻のブルース
TTITLE13=芙蓉軒麗花 - ろうきょく炭坑節
TTITLE14=川上のぼると大阪ヤローズ - カックン節
TTITLE15=若井ぼん・若井はやと - スッテンテン節
TTITLE16=笑福亭仁智 - ラブリー・ベイビー
TTITLE17=笑福亭鶴瓶 - はやく人間になりたいッ!
TTITLE18=関敬六 - 喜劇役者
TTITLE19=華ばら - おんな別れ雨
TTITLE20=華ばら - 何考えてんの
TTITLE21=横山やすし - 息子よ お前は男だぞ
EXTD=
EXTT0=
EXTT1=
EXTT2=
EXTT3=
EXTT4=
EXTT5=
EXTT6=
EXTT7=
EXTT8=
EXTT9=
EXTT10=
EXTT11=
EXTT12=
EXTT13=
EXTT14=
EXTT15=
EXTT16=
EXTT17=
EXTT18=
EXTT19=
EXTT20=
EXTT21=
PLAYORDER=
